# xmcd
#
# Track frame offsets:
#       150
#       18810
#       46683
#       69765
#       93045
#       114872
#       135937
#       153394
#       178188
#       198423
#
# Disc length: 2891 seconds
#
# Revision: 0
# Processed by: cddbd v1.5.2PL0 Copyright (c) Steve Scherf et al.
# Submitted via: WaveLab 4.01
#
DISCID=690b490a
DTITLE=CLAYTON ALEXANDRE TEIXEIRA - KAIROS
DYEAR=1900
DGENRE=
TTITLE0=TU ES DEUS
TTITLE1=INCOMPARAVEL
TTITLE2=ANDAR CONTIGO
TTITLE3=CADA MANHA
TTITLE4=QUERO TE DIZER
TTITLE5=TE ADORAR
TTITLE6=ESPONTANEO
TTITLE7=PRECISO DE TI
TTITLE8=NAO HA OUTRO
TTITLE9=ES FIEL
EXTD=
EXTT0=
EXTT1=
EXTT2=
EXTT3=
EXTT4=
EXTT5=
EXTT6=
EXTT7=
EXTT8=
EXTT9=
PLAYORDER=
